<?xml version="1.0" encoding="UTF-8"?>
<svg id="Layer_1" xmlns="http://www.w3.org/2000/svg" version="1.1" xmlns:xlink="http://www.w3.org/1999/xlink" viewBox="0 0 256 256">
  <!-- Generator: Adobe Illustrator 29.6.1, SVG Export Plug-In . SVG Version: 2.1.1 Build 9)  -->
  <defs>
    <style>
      .st0 {
        fill: url(#linear-gradient);
      }
    </style>
    <linearGradient id="linear-gradient" x1="9.48" y1="128" x2="246.52" y2="128" gradientUnits="userSpaceOnUse">
      <stop offset="0" stop-color="#bf0a00"/>
      <stop offset="1" stop-color="#ff7715"/>
    </linearGradient>
  </defs>
  <path class="st0" d="M156.81,47.08c19.48,0,37.15,7.93,49.96,20.68,12.79,12.79,20.68,30.42,20.68,49.94,0,14.25-4.24,27.56-11.5,38.65l30.57,33.31-21.08,19.27-29.51-32.42c-11.19,7.46-24.67,11.8-39.12,11.8-16.09,0-30.94-5.4-42.82-14.47-7.41,7.46-14.49,14.56-20.45,20.52l-40.95-40.45-28.78,27.95-14.33-14.33h0l43.36-42.14c13.54,13.54,26.93,26.93,40.6,40.43l6.35-6.4c-8.56-11.69-13.6-26.08-13.6-41.7,0-19.48,7.93-37.15,20.68-49.94,12.79-12.83,30.42-20.7,49.94-20.7h0ZM110.63,148.47l28.22-28.49-16.8-16.8,47.26-.42v47.68l-16.14-16.14c-8.1,8.2-18.3,18.52-28.6,28.91,9.12,6.65,20.39,10.61,32.54,10.61,15.26,0,29.11-6.21,39.1-16.22,10.01-10.01,16.22-23.84,16.22-39.1s-6.21-29.11-16.22-39.1h0c-10.01-10.01-23.84-16.22-39.1-16.22s-29.11,6.21-39.1,16.22c-10.01,10.01-16.22,23.84-16.22,39.1,0,11.03,3.26,21.33,8.85,29.97h0Z"/>
</svg>